<mxfile host="app.diagrams.net" modified="2024-06-06T20:40:27.291Z" agent="Mozilla/5.0 (Windows NT 10.0; Win64; x64) AppleWebKit/537.36 (KHTML, like Gecko) Chrome/125.0.0.0 Safari/537.36" etag="0mJ1OdBQ9IidEdRk5vsY" version="24.4.13" type="github">
  <diagram name="Page-1" id="CLEHjoU5vSzugFdWLpFR">
    <mxGraphModel dx="1783" dy="1259" grid="1" gridSize="10" guides="1" tooltips="1" connect="1" arrows="1" fold="1" page="1" pageScale="1" pageWidth="1100" pageHeight="850" math="1" shadow="0">
      <root>
        <mxCell id="0" />
        <mxCell id="1" parent="0" />
        <mxCell id="atc6zTnJ9f4bXwOcN9K--1" style="edgeStyle=orthogonalEdgeStyle;rounded=0;orthogonalLoop=1;jettySize=auto;html=1;exitX=0;exitY=0.5;exitDx=0;exitDy=0;strokeColor=#000000;strokeWidth=2;fontSize=20;" edge="1" parent="1" source="atc6zTnJ9f4bXwOcN9K--2" target="atc6zTnJ9f4bXwOcN9K--17">
          <mxGeometry relative="1" as="geometry" />
        </mxCell>
        <mxCell id="atc6zTnJ9f4bXwOcN9K--2" value="" style="rounded=0;whiteSpace=wrap;html=1;fillColor=#f5f5f5;strokeColor=#666666;fontColor=#333333;fontSize=20;" vertex="1" parent="1">
          <mxGeometry x="331.37" y="491" width="174.63" height="200" as="geometry" />
        </mxCell>
        <mxCell id="atc6zTnJ9f4bXwOcN9K--3" style="edgeStyle=orthogonalEdgeStyle;rounded=1;orthogonalLoop=1;jettySize=auto;html=1;exitX=1;exitY=0.5;exitDx=0;exitDy=0;entryX=0;entryY=0.5;entryDx=0;entryDy=0;strokeWidth=2;curved=0;fontSize=20;" edge="1" parent="1" source="atc6zTnJ9f4bXwOcN9K--4" target="atc6zTnJ9f4bXwOcN9K--6">
          <mxGeometry relative="1" as="geometry">
            <Array as="points">
              <mxPoint x="-100" y="493" />
              <mxPoint x="-100" y="328" />
            </Array>
          </mxGeometry>
        </mxCell>
        <mxCell id="atc6zTnJ9f4bXwOcN9K--4" value="" style="rounded=0;whiteSpace=wrap;html=1;fillColor=#f5f5f5;fontColor=#333333;strokeColor=#666666;fontSize=16;" vertex="1" parent="1">
          <mxGeometry x="-494" y="438" width="335" height="110" as="geometry" />
        </mxCell>
        <mxCell id="atc6zTnJ9f4bXwOcN9K--5" value="" style="edgeStyle=orthogonalEdgeStyle;orthogonalLoop=1;jettySize=auto;html=1;rounded=1;strokeColor=#000000;strokeWidth=2;fontSize=20;" edge="1" parent="1" source="atc6zTnJ9f4bXwOcN9K--6" target="atc6zTnJ9f4bXwOcN9K--15">
          <mxGeometry relative="1" as="geometry" />
        </mxCell>
        <mxCell id="atc6zTnJ9f4bXwOcN9K--6" value="" style="rounded=0;whiteSpace=wrap;html=1;fillColor=#f5f5f5;fontColor=#333333;strokeColor=#666666;fontSize=20;" vertex="1" parent="1">
          <mxGeometry x="-70" y="223" width="541.63" height="210" as="geometry" />
        </mxCell>
        <mxCell id="atc6zTnJ9f4bXwOcN9K--7" value="" style="rounded=0;whiteSpace=wrap;html=1;rotation=90;fillColor=#fff2cc;strokeColor=#d6b656;fontSize=20;" vertex="1" parent="1">
          <mxGeometry x="-56.80000000000001" y="272.32" width="148.62" height="140" as="geometry" />
        </mxCell>
        <mxCell id="atc6zTnJ9f4bXwOcN9K--8" value="" style="rounded=0;whiteSpace=wrap;html=1;fontSize=20;" vertex="1" parent="1">
          <mxGeometry x="-32.370000000000005" y="339" width="95" height="60" as="geometry" />
        </mxCell>
        <mxCell id="atc6zTnJ9f4bXwOcN9K--9" value="" style="edgeStyle=orthogonalEdgeStyle;rounded=0;orthogonalLoop=1;jettySize=auto;html=1;fontSize=20;strokeWidth=2;" edge="1" parent="1" source="atc6zTnJ9f4bXwOcN9K--10" target="atc6zTnJ9f4bXwOcN9K--14">
          <mxGeometry relative="1" as="geometry" />
        </mxCell>
        <mxCell id="atc6zTnJ9f4bXwOcN9K--10" value="$$\mathsf{A}$$" style="rounded=0;whiteSpace=wrap;html=1;fillColor=#d5e8d4;strokeColor=#82b366;fontSize=20;" vertex="1" parent="1">
          <mxGeometry x="-476.5" y="473" width="120" height="60" as="geometry" />
        </mxCell>
        <mxCell id="atc6zTnJ9f4bXwOcN9K--11" value="Message Passing Block" style="text;html=1;strokeColor=none;fillColor=none;align=center;verticalAlign=middle;whiteSpace=wrap;rounded=0;fontSize=18;" vertex="1" parent="1">
          <mxGeometry x="-45.56999999999999" y="284" width="124.13" height="30" as="geometry" />
        </mxCell>
        <mxCell id="atc6zTnJ9f4bXwOcN9K--12" value="GraphNet Block" style="text;html=1;strokeColor=none;fillColor=none;align=center;verticalAlign=middle;whiteSpace=wrap;rounded=0;fontSize=18;fontStyle=2" vertex="1" parent="1">
          <mxGeometry x="-29.870000000000005" y="356" width="90.13" height="30" as="geometry" />
        </mxCell>
        <mxCell id="atc6zTnJ9f4bXwOcN9K--13" value="GraphPAN" style="text;html=1;strokeColor=none;fillColor=none;align=center;verticalAlign=middle;whiteSpace=wrap;rounded=0;fontSize=20;fontStyle=1" vertex="1" parent="1">
          <mxGeometry x="-31.5" y="231" width="60" height="30" as="geometry" />
        </mxCell>
        <mxCell id="atc6zTnJ9f4bXwOcN9K--14" value="$$G=(V,E)$$" style="rounded=0;whiteSpace=wrap;html=1;fillColor=#d5e8d4;strokeColor=#82b366;fontSize=19;" vertex="1" parent="1">
          <mxGeometry x="-297.13" y="473" width="120" height="60" as="geometry" />
        </mxCell>
        <mxCell id="atc6zTnJ9f4bXwOcN9K--15" value="" style="rounded=0;whiteSpace=wrap;html=1;fillColor=#f5f5f5;fontColor=#333333;strokeColor=#666666;fontSize=20;" vertex="1" parent="1">
          <mxGeometry x="506" y="263" width="170" height="130" as="geometry" />
        </mxCell>
        <mxCell id="atc6zTnJ9f4bXwOcN9K--16" value="&lt;span style=&quot;font-size: 17px;&quot;&gt;$$G_P=(V_P,E_P)$$&lt;/span&gt;" style="rounded=0;whiteSpace=wrap;html=1;fillColor=#f8cecc;strokeColor=#b85450;fontSize=17;" vertex="1" parent="1">
          <mxGeometry x="522.12" y="316" width="137.88" height="60" as="geometry" />
        </mxCell>
        <mxCell id="atc6zTnJ9f4bXwOcN9K--17" value="" style="rounded=0;whiteSpace=wrap;html=1;fillColor=#f5f5f5;fontColor=#333333;strokeColor=#666666;fontSize=20;" vertex="1" parent="1">
          <mxGeometry x="-50" y="531" width="320.87" height="120" as="geometry" />
        </mxCell>
        <mxCell id="atc6zTnJ9f4bXwOcN9K--18" style="edgeStyle=orthogonalEdgeStyle;rounded=0;orthogonalLoop=1;jettySize=auto;html=1;dashed=1;strokeColor=#E60034;strokeWidth=2;fontSize=20;exitX=0.5;exitY=0;exitDx=0;exitDy=0;dashPattern=8 8;entryX=0.342;entryY=0.995;entryDx=0;entryDy=0;entryPerimeter=0;" edge="1" parent="1" source="atc6zTnJ9f4bXwOcN9K--17" target="atc6zTnJ9f4bXwOcN9K--6">
          <mxGeometry relative="1" as="geometry">
            <mxPoint x="491.63" y="578" as="sourcePoint" />
            <mxPoint x="170" y="435" as="targetPoint" />
          </mxGeometry>
        </mxCell>
        <mxCell id="atc6zTnJ9f4bXwOcN9K--19" value="$$\ell(\mathsf{x},\mathbf{b},\mathsf{L}_{\theta}\mathsf{U}_{\theta})=||\mathsf{L}_{\theta}\mathsf{U}_{\theta}\mathbf{x}-\mathbf{b}||$$" style="rounded=0;whiteSpace=wrap;html=1;fillColor=#e1d5e7;strokeColor=#9673a6;fontSize=20;" vertex="1" parent="1">
          <mxGeometry x="-40" y="565" width="301.87" height="75" as="geometry" />
        </mxCell>
        <mxCell id="atc6zTnJ9f4bXwOcN9K--20" value="Training loss" style="text;html=1;strokeColor=none;fillColor=none;align=center;verticalAlign=middle;whiteSpace=wrap;rounded=0;fontSize=20;fontStyle=1" vertex="1" parent="1">
          <mxGeometry x="-40.13" y="534" width="146.13" height="30" as="geometry" />
        </mxCell>
        <mxCell id="atc6zTnJ9f4bXwOcN9K--21" value="Incomplete LU Factorization" style="text;html=1;strokeColor=none;fillColor=none;align=center;verticalAlign=middle;whiteSpace=wrap;rounded=0;fontSize=20;fontStyle=1" vertex="1" parent="1">
          <mxGeometry x="342" y="507" width="150" height="30" as="geometry" />
        </mxCell>
        <mxCell id="atc6zTnJ9f4bXwOcN9K--22" value="Matrix to Graph" style="text;html=1;strokeColor=none;fillColor=none;align=center;verticalAlign=middle;whiteSpace=wrap;rounded=0;fontSize=20;fontStyle=1" vertex="1" parent="1">
          <mxGeometry x="-489.5" y="441" width="159.5" height="30" as="geometry" />
        </mxCell>
        <mxCell id="atc6zTnJ9f4bXwOcN9K--23" value="" style="rounded=0;whiteSpace=wrap;html=1;fontSize=16;" vertex="1" parent="1">
          <mxGeometry x="-516.22" y="571" width="379.44" height="142" as="geometry" />
        </mxCell>
        <mxCell id="atc6zTnJ9f4bXwOcN9K--24" value="" style="edgeStyle=orthogonalEdgeStyle;rounded=0;orthogonalLoop=1;jettySize=auto;html=1;strokeColor=#9933FF;strokeWidth=2;fontSize=16;" edge="1" parent="1">
          <mxGeometry relative="1" as="geometry">
            <mxPoint x="-505.03" y="593.5" as="sourcePoint" />
            <mxPoint x="-442.03" y="593.5" as="targetPoint" />
            <Array as="points">
              <mxPoint x="-505.03" y="593.5" />
            </Array>
          </mxGeometry>
        </mxCell>
        <mxCell id="atc6zTnJ9f4bXwOcN9K--25" value="" style="edgeStyle=orthogonalEdgeStyle;orthogonalLoop=1;jettySize=auto;html=1;rounded=1;strokeColor=#000000;strokeWidth=2;arcSize=20;fontSize=16;" edge="1" parent="1">
          <mxGeometry relative="1" as="geometry">
            <mxPoint x="-481.73999999999995" y="627.5" as="sourcePoint" />
            <mxPoint x="-446.67999999999995" y="627.5" as="targetPoint" />
            <Array as="points">
              <mxPoint x="-506.7399999999999" y="627.5" />
              <mxPoint x="-506.7399999999999" y="627.5" />
            </Array>
          </mxGeometry>
        </mxCell>
        <mxCell id="atc6zTnJ9f4bXwOcN9K--26" value="Finite Element Discretization" style="text;html=1;strokeColor=none;fillColor=none;align=center;verticalAlign=middle;whiteSpace=wrap;rounded=0;fontSize=16;" vertex="1" parent="1">
          <mxGeometry x="-431.03" y="579" width="225.06" height="30" as="geometry" />
        </mxCell>
        <mxCell id="atc6zTnJ9f4bXwOcN9K--27" value="Output from one block is input to another block" style="text;html=1;strokeColor=none;fillColor=none;align=center;verticalAlign=middle;whiteSpace=wrap;rounded=0;fontSize=16;" vertex="1" parent="1">
          <mxGeometry x="-432.78" y="613" width="251.14" height="30" as="geometry" />
        </mxCell>
        <mxCell id="atc6zTnJ9f4bXwOcN9K--28" value="Multiple message passing blocks&amp;nbsp;" style="text;html=1;strokeColor=none;fillColor=none;align=center;verticalAlign=middle;whiteSpace=wrap;rounded=0;fontSize=16;" vertex="1" parent="1">
          <mxGeometry x="-442.03" y="642" width="275.06" height="30" as="geometry" />
        </mxCell>
        <mxCell id="atc6zTnJ9f4bXwOcN9K--29" value="" style="edgeStyle=orthogonalEdgeStyle;rounded=0;orthogonalLoop=1;jettySize=auto;html=1;dashed=1;fontSize=16;strokeWidth=2;" edge="1" parent="1">
          <mxGeometry relative="1" as="geometry">
            <mxPoint x="-497.91999999999996" y="657.5" as="sourcePoint" />
            <mxPoint x="-447.91999999999996" y="657.5" as="targetPoint" />
          </mxGeometry>
        </mxCell>
        <mxCell id="atc6zTnJ9f4bXwOcN9K--30" style="edgeStyle=orthogonalEdgeStyle;rounded=0;orthogonalLoop=1;jettySize=auto;html=1;dashed=1;dashPattern=12 12;strokeColor=#E60034;strokeWidth=2;fontSize=16;" edge="1" parent="1">
          <mxGeometry relative="1" as="geometry">
            <mxPoint x="-495.03" y="687.5" as="sourcePoint" />
            <mxPoint x="-442.03" y="687.5" as="targetPoint" />
          </mxGeometry>
        </mxCell>
        <mxCell id="atc6zTnJ9f4bXwOcN9K--31" value="Node and edge attributes are updated until training loss converges" style="text;html=1;strokeColor=none;fillColor=none;align=center;verticalAlign=middle;whiteSpace=wrap;rounded=0;fontSize=16;" vertex="1" parent="1">
          <mxGeometry x="-431.84" y="673" width="285.06" height="30" as="geometry" />
        </mxCell>
        <mxCell id="atc6zTnJ9f4bXwOcN9K--32" value="" style="rounded=0;whiteSpace=wrap;html=1;rotation=90;fillColor=#fff2cc;strokeColor=#d6b656;fontSize=20;" vertex="1" parent="1">
          <mxGeometry x="116.00999999999999" y="271" width="148.62" height="140" as="geometry" />
        </mxCell>
        <mxCell id="atc6zTnJ9f4bXwOcN9K--33" value="" style="rounded=0;whiteSpace=wrap;html=1;fontSize=20;" vertex="1" parent="1">
          <mxGeometry x="140.44" y="337.67999999999995" width="95" height="60" as="geometry" />
        </mxCell>
        <mxCell id="atc6zTnJ9f4bXwOcN9K--34" value="Message Passing Block" style="text;html=1;strokeColor=none;fillColor=none;align=center;verticalAlign=middle;whiteSpace=wrap;rounded=0;fontSize=18;" vertex="1" parent="1">
          <mxGeometry x="127.24000000000001" y="282.68" width="124.13" height="30" as="geometry" />
        </mxCell>
        <mxCell id="atc6zTnJ9f4bXwOcN9K--35" value="GraphNet Block" style="text;html=1;strokeColor=none;fillColor=none;align=center;verticalAlign=middle;whiteSpace=wrap;rounded=0;fontSize=18;fontStyle=2" vertex="1" parent="1">
          <mxGeometry x="142.94" y="354.67999999999995" width="90.13" height="30" as="geometry" />
        </mxCell>
        <mxCell id="atc6zTnJ9f4bXwOcN9K--36" value="" style="rounded=0;whiteSpace=wrap;html=1;rotation=90;fillColor=#fff2cc;strokeColor=#d6b656;fontSize=20;" vertex="1" parent="1">
          <mxGeometry x="311.63" y="273" width="148.62" height="140" as="geometry" />
        </mxCell>
        <mxCell id="atc6zTnJ9f4bXwOcN9K--37" value="" style="rounded=0;whiteSpace=wrap;html=1;fontSize=20;" vertex="1" parent="1">
          <mxGeometry x="336.06" y="339.67999999999995" width="95" height="60" as="geometry" />
        </mxCell>
        <mxCell id="atc6zTnJ9f4bXwOcN9K--38" value="Message Passing Block" style="text;html=1;strokeColor=none;fillColor=none;align=center;verticalAlign=middle;whiteSpace=wrap;rounded=0;fontSize=18;" vertex="1" parent="1">
          <mxGeometry x="322.86" y="284.68" width="124.13" height="30" as="geometry" />
        </mxCell>
        <mxCell id="atc6zTnJ9f4bXwOcN9K--39" value="GraphNet Block" style="text;html=1;strokeColor=none;fillColor=none;align=center;verticalAlign=middle;whiteSpace=wrap;rounded=0;fontSize=18;fontStyle=2" vertex="1" parent="1">
          <mxGeometry x="338.56" y="356.67999999999995" width="90.13" height="30" as="geometry" />
        </mxCell>
        <mxCell id="atc6zTnJ9f4bXwOcN9K--40" value="" style="edgeStyle=orthogonalEdgeStyle;orthogonalLoop=1;jettySize=auto;html=1;rounded=1;strokeColor=#000000;strokeWidth=2;fontSize=20;" edge="1" parent="1">
          <mxGeometry relative="1" as="geometry">
            <mxPoint x="90.5" y="336.67999999999995" as="sourcePoint" />
            <mxPoint x="121.63" y="337" as="targetPoint" />
          </mxGeometry>
        </mxCell>
        <mxCell id="atc6zTnJ9f4bXwOcN9K--41" value="" style="edgeStyle=orthogonalEdgeStyle;rounded=0;orthogonalLoop=1;jettySize=auto;html=1;dashed=1;fontSize=20;strokeWidth=2;" edge="1" parent="1">
          <mxGeometry relative="1" as="geometry">
            <mxPoint x="261.63" y="342.5" as="sourcePoint" />
            <mxPoint x="311.63" y="342.5" as="targetPoint" />
          </mxGeometry>
        </mxCell>
        <mxCell id="atc6zTnJ9f4bXwOcN9K--42" value="$$\mathsf{L}_{\theta}$$" style="rounded=0;whiteSpace=wrap;html=1;fontSize=20;fillColor=#b0e3e6;strokeColor=#0e8088;" vertex="1" parent="1">
          <mxGeometry x="366.56" y="553" width="113.44" height="54" as="geometry" />
        </mxCell>
        <mxCell id="atc6zTnJ9f4bXwOcN9K--43" value="$$\mathsf{U}_{\theta}$$" style="rounded=0;whiteSpace=wrap;html=1;fontSize=20;fillColor=#b0e3e6;strokeColor=#0e8088;" vertex="1" parent="1">
          <mxGeometry x="367.56" y="621" width="113.44" height="53" as="geometry" />
        </mxCell>
        <mxCell id="atc6zTnJ9f4bXwOcN9K--45" value="" style="rounded=0;whiteSpace=wrap;html=1;fillColor=#f5f5f5;fontColor=#333333;strokeColor=#666666;fontSize=20;" vertex="1" parent="1">
          <mxGeometry x="-890" y="-130" width="387" height="260" as="geometry" />
        </mxCell>
        <mxCell id="atc6zTnJ9f4bXwOcN9K--46" value="Dataset Generation" style="text;html=1;strokeColor=none;fillColor=none;align=center;verticalAlign=middle;whiteSpace=wrap;rounded=0;fontSize=20;fontStyle=1" vertex="1" parent="1">
          <mxGeometry x="-881.5" y="-124" width="201.5" height="30" as="geometry" />
        </mxCell>
        <mxCell id="atc6zTnJ9f4bXwOcN9K--47" value="" style="rounded=0;whiteSpace=wrap;html=1;fontSize=20;" vertex="1" parent="1">
          <mxGeometry x="-875.5" y="-88" width="352.5" height="198" as="geometry" />
        </mxCell>
        <mxCell id="atc6zTnJ9f4bXwOcN9K--48" value="Linear Advection Equation" style="text;html=1;strokeColor=none;fillColor=none;align=center;verticalAlign=middle;whiteSpace=wrap;rounded=0;fontSize=20;fontStyle=0" vertex="1" parent="1">
          <mxGeometry x="-870.78" y="-85" width="250.78" height="30" as="geometry" />
        </mxCell>
        <mxCell id="atc6zTnJ9f4bXwOcN9K--49" style="edgeStyle=orthogonalEdgeStyle;rounded=0;orthogonalLoop=1;jettySize=auto;html=1;exitX=0.25;exitY=1;exitDx=0;exitDy=0;entryX=0.5;entryY=0;entryDx=0;entryDy=0;strokeWidth=2;fontSize=20;" edge="1" parent="1" source="atc6zTnJ9f4bXwOcN9K--50" target="atc6zTnJ9f4bXwOcN9K--54">
          <mxGeometry relative="1" as="geometry" />
        </mxCell>
        <mxCell id="atc6zTnJ9f4bXwOcN9K--50" value="" style="rounded=0;whiteSpace=wrap;html=1;fillColor=#fad7ac;strokeColor=#b46504;fontSize=20;" vertex="1" parent="1">
          <mxGeometry x="-866.0799999999999" y="-48" width="333.08" height="60" as="geometry" />
        </mxCell>
        <mxCell id="atc6zTnJ9f4bXwOcN9K--51" style="edgeStyle=orthogonalEdgeStyle;rounded=0;orthogonalLoop=1;jettySize=auto;html=1;exitX=1;exitY=0.5;exitDx=0;exitDy=0;strokeColor=#9933FF;strokeWidth=2;entryX=0.001;entryY=0.561;entryDx=0;entryDy=0;entryPerimeter=0;fontSize=20;" edge="1" parent="1">
          <mxGeometry relative="1" as="geometry">
            <mxPoint x="-700.0600000000002" y="-15.5" as="sourcePoint" />
            <mxPoint x="-670.1802599999999" y="-15.56000000000006" as="targetPoint" />
          </mxGeometry>
        </mxCell>
        <mxCell id="atc6zTnJ9f4bXwOcN9K--52" value="$$\frac{du}{dt}+v \cdot \nabla(u)=0$$" style="text;html=1;strokeColor=none;fillColor=none;align=center;verticalAlign=middle;whiteSpace=wrap;rounded=0;fontSize=17;" vertex="1" parent="1">
          <mxGeometry x="-865.5" y="-42" width="164.39" height="50" as="geometry" />
        </mxCell>
        <mxCell id="atc6zTnJ9f4bXwOcN9K--53" value="$$\mathsf{A}=\mathsf{M}+\frac{\Delta t}{2}\mathsf{K}&lt;br style=&quot;font-size: 17px;&quot;&gt;$$" style="text;html=1;strokeColor=none;fillColor=none;align=center;verticalAlign=middle;whiteSpace=wrap;rounded=0;fontSize=17;" vertex="1" parent="1">
          <mxGeometry x="-675.3199999999999" y="-38" width="139.74" height="40" as="geometry" />
        </mxCell>
        <mxCell id="atc6zTnJ9f4bXwOcN9K--54" value="1D Advection" style="rounded=0;whiteSpace=wrap;html=1;fillColor=#dae8fc;strokeColor=#6c8ebf;fontSize=18;" vertex="1" parent="1">
          <mxGeometry x="-866.0799999999999" y="32" width="149.5" height="60" as="geometry" />
        </mxCell>
        <mxCell id="atc6zTnJ9f4bXwOcN9K--55" value="2D Advection&amp;nbsp;&lt;div style=&quot;font-size: 18px;&quot;&gt;(Data Augmentation)&lt;/div&gt;" style="rounded=0;whiteSpace=wrap;html=1;fillColor=#dae8fc;strokeColor=#6c8ebf;fontSize=18;" vertex="1" parent="1">
          <mxGeometry x="-708" y="32" width="175" height="58" as="geometry" />
        </mxCell>
        <mxCell id="atc6zTnJ9f4bXwOcN9K--56" value="Output" style="text;html=1;strokeColor=none;fillColor=none;align=center;verticalAlign=middle;whiteSpace=wrap;rounded=0;fontSize=20;fontStyle=1" vertex="1" parent="1">
          <mxGeometry x="532.32" y="273" width="123.47" height="30" as="geometry" />
        </mxCell>
        <mxCell id="atc6zTnJ9f4bXwOcN9K--57" style="edgeStyle=orthogonalEdgeStyle;rounded=0;orthogonalLoop=1;jettySize=auto;html=1;exitX=0.75;exitY=1;exitDx=0;exitDy=0;entryX=0.524;entryY=-0.034;entryDx=0;entryDy=0;entryPerimeter=0;strokeWidth=2;fontSize=20;" edge="1" parent="1" source="atc6zTnJ9f4bXwOcN9K--50" target="atc6zTnJ9f4bXwOcN9K--55">
          <mxGeometry relative="1" as="geometry" />
        </mxCell>
        <mxCell id="atc6zTnJ9f4bXwOcN9K--58" style="edgeStyle=orthogonalEdgeStyle;rounded=1;orthogonalLoop=1;jettySize=auto;html=1;exitX=0.5;exitY=1;exitDx=0;exitDy=0;entryX=1.006;entryY=0.435;entryDx=0;entryDy=0;entryPerimeter=0;strokeWidth=2;curved=0;" edge="1" parent="1" source="atc6zTnJ9f4bXwOcN9K--15" target="atc6zTnJ9f4bXwOcN9K--2">
          <mxGeometry relative="1" as="geometry" />
        </mxCell>
        <mxCell id="atc6zTnJ9f4bXwOcN9K--59" style="edgeStyle=orthogonalEdgeStyle;rounded=1;orthogonalLoop=1;jettySize=auto;html=1;exitX=0.5;exitY=1;exitDx=0;exitDy=0;entryX=1;entryY=0.84;entryDx=0;entryDy=0;entryPerimeter=0;curved=0;strokeWidth=2;" edge="1" parent="1" source="atc6zTnJ9f4bXwOcN9K--15" target="atc6zTnJ9f4bXwOcN9K--2">
          <mxGeometry relative="1" as="geometry" />
        </mxCell>
        <mxCell id="atc6zTnJ9f4bXwOcN9K--60" value="" style="rounded=0;whiteSpace=wrap;html=1;fillColor=#f5f5f5;fontColor=#333333;strokeColor=#666666;fontSize=20;" vertex="1" parent="1">
          <mxGeometry x="-380" y="-200" width="410" height="260" as="geometry" />
        </mxCell>
        <mxCell id="atc6zTnJ9f4bXwOcN9K--61" value="Dataset Generation" style="text;html=1;strokeColor=none;fillColor=none;align=center;verticalAlign=middle;whiteSpace=wrap;rounded=0;fontSize=20;fontStyle=1" vertex="1" parent="1">
          <mxGeometry x="-375.5" y="-194" width="201.5" height="30" as="geometry" />
        </mxCell>
        <mxCell id="atc6zTnJ9f4bXwOcN9K--62" value="" style="rounded=0;whiteSpace=wrap;html=1;fontSize=20;" vertex="1" parent="1">
          <mxGeometry x="-370" y="-158" width="390" height="208" as="geometry" />
        </mxCell>
        <mxCell id="atc6zTnJ9f4bXwOcN9K--73" value="" style="rounded=0;whiteSpace=wrap;html=1;fillColor=#dae8fc;strokeColor=#6c8ebf;" vertex="1" parent="1">
          <mxGeometry x="-360" y="-145" width="180" height="179" as="geometry" />
        </mxCell>
        <mxCell id="atc6zTnJ9f4bXwOcN9K--74" value="" style="rounded=0;whiteSpace=wrap;html=1;fillColor=#d5e8d4;strokeColor=#82b366;" vertex="1" parent="1">
          <mxGeometry x="-169" y="-145" width="179" height="179" as="geometry" />
        </mxCell>
        <mxCell id="atc6zTnJ9f4bXwOcN9K--75" value="1D Steady Advection Equation&amp;nbsp;" style="text;html=1;align=center;verticalAlign=middle;whiteSpace=wrap;rounded=0;fontSize=18;" vertex="1" parent="1">
          <mxGeometry x="-354" y="-132" width="175.97" height="30" as="geometry" />
        </mxCell>
        <mxCell id="atc6zTnJ9f4bXwOcN9K--76" value="2D Time-dependent Advection Equation&amp;nbsp;" style="text;html=1;align=center;verticalAlign=middle;whiteSpace=wrap;rounded=0;fontSize=18;" vertex="1" parent="1">
          <mxGeometry x="-167.49" y="-132" width="175.97" height="30" as="geometry" />
        </mxCell>
        <mxCell id="atc6zTnJ9f4bXwOcN9K--77" value="$$v \cdot \nabla(u)=f(x)$$" style="text;html=1;strokeColor=none;fillColor=none;align=center;verticalAlign=middle;whiteSpace=wrap;rounded=0;fontSize=17;" vertex="1" parent="1">
          <mxGeometry x="-350.52" y="-80" width="164.39" height="43" as="geometry" />
        </mxCell>
        <mxCell id="atc6zTnJ9f4bXwOcN9K--82" style="edgeStyle=orthogonalEdgeStyle;rounded=0;orthogonalLoop=1;jettySize=auto;html=1;exitX=0.5;exitY=1;exitDx=0;exitDy=0;entryX=0.5;entryY=0;entryDx=0;entryDy=0;strokeWidth=2;strokeColor=#9933FF;" edge="1" parent="1" source="atc6zTnJ9f4bXwOcN9K--78" target="atc6zTnJ9f4bXwOcN9K--79">
          <mxGeometry relative="1" as="geometry" />
        </mxCell>
        <mxCell id="atc6zTnJ9f4bXwOcN9K--78" value="$$\frac{du}{dt}+v \cdot \nabla(u)=0$$" style="text;html=1;strokeColor=none;fillColor=none;align=center;verticalAlign=middle;whiteSpace=wrap;rounded=0;fontSize=17;" vertex="1" parent="1">
          <mxGeometry x="-159.39" y="-83" width="164.39" height="46" as="geometry" />
        </mxCell>
        <mxCell id="atc6zTnJ9f4bXwOcN9K--79" value="$$\mathsf{A}=\mathsf{M}+\frac{\Delta t}{2}\mathsf{K}&lt;br style=&quot;font-size: 17px;&quot;&gt;$$" style="text;html=1;strokeColor=none;fillColor=none;align=center;verticalAlign=middle;whiteSpace=wrap;rounded=0;fontSize=17;" vertex="1" parent="1">
          <mxGeometry x="-146.78" y="-7" width="139.74" height="29" as="geometry" />
        </mxCell>
        <mxCell id="atc6zTnJ9f4bXwOcN9K--80" value="$$\mathsf{A}&lt;br style=&quot;font-size: 17px;&quot;&gt;$$" style="text;html=1;strokeColor=none;fillColor=none;align=center;verticalAlign=middle;whiteSpace=wrap;rounded=0;fontSize=17;" vertex="1" parent="1">
          <mxGeometry x="-338.19" y="-2" width="139.74" height="31" as="geometry" />
        </mxCell>
        <mxCell id="atc6zTnJ9f4bXwOcN9K--81" value="" style="endArrow=classic;html=1;rounded=0;exitX=0.5;exitY=1;exitDx=0;exitDy=0;entryX=0.5;entryY=0;entryDx=0;entryDy=0;strokeWidth=2;strokeColor=#E60034;" edge="1" parent="1" source="atc6zTnJ9f4bXwOcN9K--77" target="atc6zTnJ9f4bXwOcN9K--80">
          <mxGeometry width="50" height="50" relative="1" as="geometry">
            <mxPoint x="-255.97" y="8" as="sourcePoint" />
            <mxPoint x="-205.97" y="-42" as="targetPoint" />
          </mxGeometry>
        </mxCell>
      </root>
    </mxGraphModel>
  </diagram>
</mxfile>
